<svg id="Layer_1" data-name="Layer 1" xmlns="http://www.w3.org/2000/svg" viewBox="0 0 18.77 21.44"><title>caleblipan-favicon_32x32</title><text x="-6.62" y="-5.28"/><path d="M19.89,24.91A9.49,9.49,0,0,1,10.67,26c-6-2.51-4.46-10.77-1.16-14.92a11.59,11.59,0,0,1-.09-5.43c0.09-.4.59-0.55,0.47,0.12a13.49,13.49,0,0,0,.19,4.51A10.69,10.69,0,0,1,19.94,5.9c9.25,1,5.88,12.45-3.89,11a7.21,7.21,0,0,1-5.88-4C9.31,14,5.42,23.62,11.59,25.52a10.28,10.28,0,0,0,7.95-1c2.06-1.21,2.89-2.75,3.89-4.79,0.19-.4.52-0.24,0.28,0.24A11.08,11.08,0,0,1,19.89,24.91ZM10.64,12.14a6.47,6.47,0,0,0,5.76,4.22C25,17.31,27.08,7.8,20.15,6.81,16.62,6.28,13,8.56,10.64,12.14Z" transform="translate(-6.62 -5.28)"/></svg>